<svg width="242" height="30" viewBox="0 0 242 30" fill="none" xmlns="http://www.w3.org/2000/svg">
<path d="M0 29.0193V0.980662H27.0155V29.0193H20.1981L20.1346 6.26796H6.8174V29.0193H0Z" fill="#991B1B"/>
<path d="M44.5258 29.3398C42.0981 29.3398 39.9385 28.8591 38.0472 27.8978C36.184 26.9365 34.702 25.628 33.601 23.9724C32.5283 22.2901 31.992 20.3808 31.992 18.2445C31.992 16.0815 32.5283 14.1722 33.601 12.5166C34.702 10.8343 36.184 9.52578 38.0472 8.59116C39.9385 7.62983 42.0981 7.14917 44.5258 7.14917C46.9253 7.14917 49.0707 7.62983 50.9621 8.59116C52.8535 9.52578 54.3355 10.8209 55.4082 12.4765C56.481 14.1321 57.0173 16.0548 57.0173 18.2445C57.0173 20.3808 56.481 22.2901 55.4082 23.9724C54.3355 25.628 52.8535 26.9365 50.9621 27.8978C49.0707 28.8591 46.9253 29.3398 44.5258 29.3398ZM44.5258 24.2127C45.6268 24.2127 46.6148 23.9724 47.4899 23.4917C48.365 23.011 49.0566 22.3301 49.5648 21.4489C50.0729 20.541 50.327 19.4728 50.327 18.2445C50.327 16.9894 50.0729 15.9213 49.5648 15.0401C49.0566 14.1588 48.365 13.4779 47.4899 12.9972C46.6148 12.5166 45.6268 12.2762 44.5258 12.2762C43.4249 12.2762 42.4368 12.5166 41.5617 12.9972C40.6866 13.4779 39.9809 14.1588 39.4445 15.0401C38.9364 15.9213 38.6823 16.9894 38.6823 18.2445C38.6823 19.4728 38.9364 20.541 39.4445 21.4489C39.9809 22.3301 40.6866 23.011 41.5617 23.4917C42.4368 23.9724 43.4249 24.2127 44.5258 24.2127Z" fill="#991B1B"/>
<path d="M58.3505 28.9793L58.6892 23.8522C58.8586 23.8789 59.028 23.9056 59.1974 23.9323C59.3668 23.9323 59.522 23.9323 59.6632 23.9323C60.4536 23.9323 61.0746 23.7187 61.5263 23.2914C61.978 22.8642 62.3167 22.2901 62.5426 21.5691C62.7684 20.8214 62.9237 19.9802 63.0083 19.0456C63.1213 18.111 63.2059 17.1363 63.2624 16.1215L63.6012 7.46961H83.0794V29.0193H76.4738L76.4404 12.5967H76.472L69.212 12.5833L69.0635 16.4019C68.9789 18.3246 68.8095 20.087 68.5554 21.6892C68.3296 23.2914 67.9485 24.68 67.4121 25.855C66.8758 27.0032 66.1559 27.8978 65.2526 28.5387C64.3492 29.1529 63.1918 29.4599 61.7804 29.4599C61.2722 29.4599 60.7359 29.4199 60.1713 29.3398C59.6067 29.2597 58.9998 29.1395 58.3505 28.9793Z" fill="#991B1B"/>
<path d="M89.4317 29.0193V7.46961H95.995V20.2873L107.089 7.46961H113.144V29.0193H106.581V16.2017L95.5293 29.0193H89.4317Z" fill="#991B1B"/>
<path d="M124.439 29.0193L124.305 12.3296L124.23 12.3296L116.732 12.5967V7.4696H138.709V12.5967L130.851 12.7469L130.847 12.3296L131.002 29.0193H124.439Z" fill="#991B1B"/>
<path d="M183.223 29.3398C180.767 29.3398 178.579 28.8725 176.66 27.9378C174.74 26.9765 173.23 25.6547 172.129 23.9724C171.056 22.2901 170.52 20.3808 170.52 18.2445C170.52 16.0815 171.056 14.1722 172.129 12.5166C173.23 10.8343 174.74 9.52578 176.66 8.59116C178.579 7.62983 180.767 7.14917 183.223 7.14917C185.623 7.14917 187.712 7.62983 189.49 8.59116C191.269 9.52578 192.581 10.8743 193.428 12.6367L188.305 15.2403C187.712 14.2256 186.964 13.4779 186.06 12.9972C185.185 12.5166 184.225 12.2762 183.181 12.2762C182.052 12.2762 181.035 12.5166 180.132 12.9972C179.229 13.4779 178.509 14.1588 177.973 15.0401C177.464 15.9213 177.21 16.9894 177.21 18.2445C177.21 19.4995 177.464 20.5677 177.973 21.4489C178.509 22.3301 179.229 23.011 180.132 23.4917C181.035 23.9724 182.052 24.2127 183.181 24.2127C184.225 24.2127 185.185 23.9857 186.06 23.5318C186.964 23.0511 187.712 22.2901 188.305 21.2486L193.428 23.8923C192.581 25.628 191.269 26.9765 189.49 27.9378C187.712 28.8725 185.623 29.3398 183.223 29.3398Z" fill="#E7C906"/>
<path d="M207.993 29.3398C205.537 29.3398 203.349 28.8725 201.43 27.9378C199.51 26.9765 198 25.6547 196.899 23.9724C195.826 22.2901 195.29 20.3808 195.29 18.2445C195.29 16.0815 195.826 14.1722 196.899 12.5166C198 10.8343 199.51 9.52578 201.43 8.59116C203.349 7.62983 205.537 7.14917 207.993 7.14917C210.392 7.14917 212.481 7.62983 214.26 8.59116C216.038 9.52578 217.351 10.8743 218.198 12.6367L213.074 15.2403C212.481 14.2256 211.733 13.4779 210.83 12.9972C209.955 12.5166 208.995 12.2762 207.951 12.2762C206.821 12.2762 205.805 12.5166 204.902 12.9972C203.998 13.4779 203.279 14.1588 202.742 15.0401C202.234 15.9213 201.98 16.9894 201.98 18.2445C201.98 19.4995 202.234 20.5677 202.742 21.4489C203.279 22.3301 203.998 23.011 204.902 23.4917C205.805 23.9724 206.821 24.2127 207.951 24.2127C208.995 24.2127 209.955 23.9857 210.83 23.5318C211.733 23.0511 212.481 22.2901 213.074 21.2486L218.198 23.8923C217.351 25.628 216.038 26.9765 214.26 27.9378C212.481 28.8725 210.392 29.3398 207.993 29.3398Z" fill="#E7C906"/>
<path d="M235.818 29.1161L236.411 25.1907L236.097 23.5766L235.944 22.023L236.199 16.4587C236.199 15.1235 234.957 14.0821 234.082 13.3344C233.235 12.5867 231.922 12.2128 230.144 12.2128C228.93 12.2128 227.73 12.3997 226.544 12.7736C225.387 13.1207 224.399 13.6014 223.58 14.2156L221.209 9.84956C222.451 9.02175 223.947 8.38086 225.698 7.9269C227.448 7.47295 229.226 7.24597 231.033 7.24597C234.505 7.24597 237.201 8.02037 239.121 9.56917C241.04 11.118 242 13.5346 242 16.8192V29.1161H235.818ZM228.873 29.4366C227.095 29.4366 225.57 29.1562 224.3 28.5954C223.03 28.0079 222.056 27.2202 221.378 26.2322C220.701 25.2441 220.362 24.1359 220.362 22.9076C220.362 21.6258 220.687 20.5043 221.336 19.5429C222.014 18.5816 223.072 17.8339 224.512 17.2998C225.952 16.7391 227.829 16.4587 230.144 16.4587H236.199L236.032 20.1037H230.864C229.311 20.1037 228.238 20.344 227.645 20.8247C227.081 21.3054 226.798 21.9062 226.798 22.6272C226.798 23.4283 227.123 24.0692 227.772 24.5498C228.45 25.0038 229.367 25.2308 230.525 25.2308C231.626 25.2308 232.614 24.9904 233.489 24.5098C234.364 24.0024 235.549 22.9843 235.944 22.023L236.103 23.6069L236.411 25.1907C235.931 26.5793 235.056 27.6341 233.785 28.3551C232.515 29.0761 230.878 29.4366 228.873 29.4366Z" fill="#E7C906"/>
<path d="M160.7 12.5661L162.227 16.1945C162.512 15.8678 160.7 12.9281 160.7 12.5661C160.7 11.7938 161.838 13.6051 161.027 12.8668C160.916 12.7656 160.806 12.6653 160.7 12.5661Z" fill="#E7C906"/>
<path fill-rule="evenodd" clip-rule="evenodd" d="M148.253 12.3564V17.3232H161.149C160.588 17.7709 160.068 18.2044 159.897 18.645C159.502 19.7399 158.909 20.6878 158.119 21.489C157.357 22.2634 156.425 22.8775 155.324 23.3315C154.251 23.7587 153.08 23.9724 151.81 23.9724C150.285 23.9724 148.888 23.7053 147.617 23.1713C146.347 22.6105 145.19 21.7693 144.145 20.6478L139.784 24.4931C141.195 26.122 142.946 27.3637 145.034 28.2182C147.152 29.0727 149.523 29.5 152.148 29.5C154.378 29.5 156.425 29.1529 158.288 28.4586C160.151 27.7376 161.775 26.7228 163.158 25.4144C164.541 24.1059 165.614 22.5704 166.376 20.808C167.138 19.0456 167.519 17.1096 167.519 15C167.519 12.8904 167.138 10.9544 166.376 9.19199C165.614 7.42956 164.541 5.89411 163.158 4.58564C161.775 3.27716 160.151 2.27578 158.288 1.58149C156.425 0.860497 154.378 0.5 152.148 0.5C149.523 0.5 147.152 0.927256 145.034 1.78177C142.946 2.63628 141.195 3.87799 139.784 5.50691L144.145 9.35221C145.19 8.23066 146.347 7.40285 147.617 6.86878C148.888 6.30801 150.285 6.02762 151.81 6.02762C153.08 6.02762 154.251 6.2546 155.324 6.70856C156.425 7.13582 157.357 7.75 158.119 8.5511C158.909 9.32551 159.502 10.2601 159.897 11.355C160.042 11.7297 160.239 12.1378 160.7 12.5661L148.253 12.3564ZM162.227 16.1945C162.512 15.8678 160.7 12.9281 160.7 12.5661C160.7 11.7938 161.838 13.6051 161.027 12.8668C160.916 12.7656 160.806 12.6653 160.7 12.5661L162.227 16.1945ZM162.904 17.3232H161.149C161.151 17.3211 161.154 17.3191 161.157 17.317C161.192 17.2888 161.227 17.2606 161.263 17.2323C161.683 16.898 161.912 16.555 162.227 16.1945L162.904 17.3232Z" fill="#E7C906"/>
<path d="M162.904 17.3232L162.227 16.1945C161.912 16.555 161.683 16.898 161.263 17.2323L161.157 17.317L161.149 17.3232H162.904Z" fill="#E7C906"/>
</svg>
