<svg width="500" height="60" viewBox="0 0 500 60" fill="none" xmlns="http://www.w3.org/2000/svg">
<path d="M0 59.0055V0.994472H55.8172V59.0055H41.7317L41.6004 11.9337H14.0855V59.0055H0Z" fill="#991B1B"/>
<path d="M91.9955 59.6685C86.9795 59.6685 82.5176 58.674 78.6098 56.6851C74.7604 54.6961 71.6983 51.989 69.4236 48.5635C67.2073 45.0829 66.0991 41.1326 66.0991 36.7127C66.0991 32.2376 67.2073 28.2873 69.4236 24.8619C71.6983 21.3812 74.7604 18.674 78.6098 16.7403C82.5176 14.7514 86.9795 13.7569 91.9955 13.7569C96.9531 13.7569 101.386 14.7514 105.294 16.7403C109.201 18.674 112.263 21.3536 114.48 24.779C116.696 28.2044 117.804 32.1823 117.804 36.7127C117.804 41.1326 116.696 45.0829 114.48 48.5635C112.263 51.989 109.201 54.6961 105.294 56.6851C101.386 58.674 96.9531 59.6685 91.9955 59.6685ZM91.9955 49.0608C94.2701 49.0608 96.3115 48.5635 98.1196 47.5691C99.9277 46.5746 101.357 45.1657 102.407 43.3425C103.456 41.4641 103.981 39.2541 103.981 36.7127C103.981 34.116 103.456 31.9061 102.407 30.0829C101.357 28.2597 99.9277 26.8508 98.1196 25.8564C96.3115 24.8619 94.2701 24.3646 91.9955 24.3646C89.7208 24.3646 87.6794 24.8619 85.8713 25.8564C84.0632 26.8508 82.6051 28.2597 81.4969 30.0829C80.4471 31.9061 79.9222 34.116 79.9222 36.7127C79.9222 39.2541 80.4471 41.4641 81.4969 43.3425C82.6051 45.1657 84.0632 46.5746 85.8713 47.5691C87.6794 48.5635 89.7208 49.0608 91.9955 49.0608Z" fill="#991B1B"/>
<path d="M120.559 58.9227L121.259 48.3149C121.609 48.3702 121.959 48.4254 122.309 48.4807C122.659 48.4807 122.979 48.4807 123.271 48.4807C124.904 48.4807 126.187 48.0387 127.12 47.1547C128.054 46.2707 128.754 45.0829 129.22 43.5912C129.687 42.0442 130.008 40.3039 130.183 38.3702C130.416 36.4365 130.591 34.4199 130.707 32.3204L131.407 14.4199H171.652V59.0055H158.004L157.935 25.0276H158L143 25L142.693 32.9006C142.518 36.8785 142.168 40.5249 141.643 43.8398C141.177 47.1547 140.389 50.0276 139.281 52.4586C138.173 54.8343 136.686 56.6851 134.819 58.0111C132.953 59.2818 130.562 59.9171 127.645 59.9171C126.596 59.9171 125.487 59.8343 124.321 59.6685C123.154 59.5028 121.9 59.2542 120.559 58.9227Z" fill="#991B1B"/>
<path d="M184.776 59.0055V14.4199H198.337V40.9392L221.259 14.4199H233.769V59.0055H220.209V32.4862L197.375 59.0055H184.776Z" fill="#991B1B"/>
<path d="M257.105 59.0055L256.829 24.4751L256.675 24.4751L241.182 25.0276V14.4199H286.588V25.0276L270.353 25.3384L270.345 24.4751L270.665 59.0055H257.105Z" fill="#991B1B"/>
<path d="M378.56 59.6685C373.486 59.6685 368.966 58.7017 365 56.768C361.034 54.779 357.913 52.0442 355.639 48.5635C353.422 45.0829 352.314 41.1326 352.314 36.7127C352.314 32.2376 353.422 28.2873 355.639 24.8619C357.913 21.3812 361.034 18.674 365 16.7403C368.966 14.7514 373.486 13.7569 378.56 13.7569C383.518 13.7569 387.834 14.7514 391.509 16.7403C395.183 18.674 397.895 21.4641 399.645 25.1105L389.059 30.4972C387.834 28.3978 386.288 26.8508 384.422 25.8564C382.614 24.8619 380.631 24.3646 378.473 24.3646C376.14 24.3646 374.04 24.8619 372.174 25.8564C370.307 26.8508 368.82 28.2597 367.712 30.0829C366.662 31.9061 366.137 34.116 366.137 36.7127C366.137 39.3094 366.662 41.5193 367.712 43.3425C368.82 45.1657 370.307 46.5746 372.174 47.5691C374.04 48.5635 376.14 49.0608 378.473 49.0608C380.631 49.0608 382.614 48.5912 384.422 47.6519C386.288 46.6575 387.834 45.0829 389.059 42.9282L399.645 48.3978C397.895 51.9889 395.183 54.779 391.509 56.768C387.834 58.7017 383.518 59.6685 378.56 59.6685Z" fill="#E7C906"/>
<path d="M429.737 59.6685C424.663 59.6685 420.143 58.7017 416.177 56.768C412.211 54.779 409.09 52.0442 406.816 48.5635C404.599 45.0829 403.491 41.1326 403.491 36.7127C403.491 32.2376 404.599 28.2873 406.816 24.8619C409.09 21.3812 412.211 18.674 416.177 16.7403C420.143 14.7514 424.663 13.7569 429.737 13.7569C434.695 13.7569 439.011 14.7514 442.686 16.7403C446.36 18.674 449.072 21.4641 450.822 25.1105L440.236 30.4972C439.011 28.3978 437.465 26.8508 435.599 25.8564C433.791 24.8619 431.808 24.3646 429.65 24.3646C427.317 24.3646 425.217 24.8619 423.351 25.8564C421.484 26.8508 419.997 28.2597 418.889 30.0829C417.839 31.9061 417.314 34.116 417.314 36.7127C417.314 39.3094 417.839 41.5193 418.889 43.3425C419.997 45.1657 421.484 46.5746 423.351 47.5691C425.217 48.5635 427.317 49.0608 429.65 49.0608C431.808 49.0608 433.791 48.5912 435.599 47.6519C437.465 46.6575 439.011 45.0829 440.236 42.9282L450.822 48.3978C449.072 51.9889 446.36 54.779 442.686 56.768C439.011 58.7017 434.695 59.6685 429.737 59.6685Z" fill="#E7C906"/>
<path d="M487.227 59.2058L488.452 51.0842L487.805 47.7447L487.487 44.5304L488.014 33.0179C488.014 30.2555 485.448 28.1008 483.64 26.5539C481.89 25.0069 479.178 24.2334 475.503 24.2334C472.995 24.2334 470.517 24.6202 468.067 25.3936C465.676 26.1119 463.634 27.1063 461.943 28.3771L457.044 19.3439C459.61 17.6312 462.701 16.3052 466.317 15.366C469.933 14.4268 473.608 13.9572 477.341 13.9572C484.515 13.9572 490.085 15.5594 494.051 18.7638C498.017 21.9682 500 26.9682 500 33.7638V59.2058H487.227ZM472.879 59.8688C469.204 59.8688 466.055 59.2887 463.43 58.1284C460.805 56.913 458.793 55.2831 457.393 53.2389C455.994 51.1947 455.294 48.9019 455.294 46.3605C455.294 43.7085 455.964 41.3881 457.306 39.3992C458.706 37.4102 460.893 35.8632 463.868 34.7583C466.842 33.5981 470.721 33.0179 475.503 33.0179H488.014L487.669 40.5594H476.991C473.783 40.5594 471.566 41.0566 470.342 42.0511C469.175 43.0456 468.592 44.2887 468.592 45.7804C468.592 47.4378 469.263 48.7638 470.604 49.7583C472.004 50.6975 473.9 51.1671 476.291 51.1671C478.566 51.1671 480.607 50.6699 482.415 49.6754C484.223 48.6257 486.671 46.5193 487.487 44.5304L487.817 47.8073L488.452 51.0842C487.46 53.9572 485.652 56.1395 483.027 57.6312C480.403 59.1229 477.02 59.8688 472.879 59.8688Z" fill="#E7C906"/>
<path d="M332.024 24.9644L335.18 32.4714C335.77 31.7954 332.024 25.7134 332.024 24.9644C332.024 23.3665 334.376 27.1141 332.701 25.5864C332.472 25.3771 332.244 25.1696 332.024 24.9644Z" fill="#E7C906"/>
<path fill-rule="evenodd" clip-rule="evenodd" d="M306.307 24.5304V34.8066H332.952C331.793 35.7329 330.718 36.6297 330.366 37.5414C329.55 39.8066 328.325 41.768 326.692 43.4254C325.117 45.0276 323.192 46.2983 320.918 47.2376C318.701 48.1216 316.281 48.5635 313.656 48.5635C310.507 48.5635 307.619 48.011 304.995 46.9061C302.37 45.7459 299.979 44.0055 297.821 41.6851L288.81 49.6409C291.726 53.0111 295.342 55.5801 299.658 57.3481C304.032 59.116 308.932 60 314.356 60C318.964 60 323.192 59.2818 327.042 57.8453C330.891 56.3536 334.245 54.2541 337.103 51.547C339.961 48.8398 342.177 45.663 343.752 42.0166C345.327 38.3702 346.114 34.3646 346.114 30C346.114 25.6354 345.327 21.6298 343.752 17.9834C342.177 14.337 339.961 11.1602 337.103 8.45304C334.245 5.74585 330.891 3.67403 327.042 2.23757C323.192 0.745855 318.964 0 314.356 0C308.932 0 304.032 0.883978 299.658 2.65193C295.342 4.41989 291.726 6.98895 288.81 10.3591L297.821 18.3149C299.979 15.9945 302.37 14.2818 304.995 13.1768C307.619 12.0166 310.507 11.4365 313.656 11.4365C316.281 11.4365 318.701 11.9061 320.918 12.8453C323.192 13.7293 325.117 15 326.692 16.6575C328.325 18.2597 329.55 20.1934 330.366 22.4586C330.666 23.2339 331.072 24.0783 332.024 24.9644L306.307 24.5304ZM335.18 32.4714C335.77 31.7954 332.024 25.7134 332.024 24.9644C332.024 23.3665 334.376 27.1141 332.701 25.5864C332.472 25.3771 332.244 25.1696 332.024 24.9644L335.18 32.4714ZM336.578 34.8066H332.952C332.957 34.8023 332.963 34.7981 332.968 34.7938C333.041 34.7355 333.114 34.6771 333.188 34.6185C334.056 33.9269 334.53 33.2172 335.18 32.4714L336.578 34.8066Z" fill="#E7C906"/>
<path d="M336.578 34.8066L335.18 32.4714C334.53 33.2172 334.056 33.9269 333.188 34.6185L332.968 34.7938L332.952 34.8066H336.578Z" fill="#E7C906"/>
</svg>
